<svg width="96" height="97" viewBox="0 0 96 97" fill="none" xmlns="http://www.w3.org/2000/svg">
<rect y="0.5" width="96" height="96" rx="48" fill="#80C0FF"/>
<path fill-rule="evenodd" clip-rule="evenodd" d="M71.9999 39.1667C72.0001 41.1893 71.2341 43.1368 69.8562 44.6174C68.4783 46.098 66.5907 47.0017 64.5733 47.1467L60.5053 51.2134C61.6453 53.1427 62.1586 55.7027 62.4106 58.5494C62.6666 61.4414 62.6666 64.8227 62.6666 68.4547V69.8334H59.9999V68.5C59.9999 64.8147 60 61.5467 59.7546 58.7854C59.5399 56.3667 59.1479 54.4827 58.4973 53.1147C56.9013 52.9014 55.4439 52.0987 54.1959 51.1094C52.7239 49.944 51.4146 48.4227 50.3373 46.956C49.3016 45.5362 48.3638 44.0474 47.5306 42.5C45.7386 43.74 43.324 44.5 40.6666 44.5C35.144 44.5 30.6666 41.2173 30.6666 37.1667C30.6666 33.4427 34.4506 30.3667 39.3533 29.896C41.0626 26.756 45.78 24.5 51.3333 24.5C57.6106 24.5 62.8213 27.384 63.8253 31.168L63.9999 31.1667C66.1217 31.1667 68.1565 32.0095 69.6568 33.5098C71.1571 35.0101 71.9999 37.0449 71.9999 39.1667ZM56.0359 39.9307C54.4977 40.3125 52.9182 40.5037 51.3333 40.5C50.7537 40.5 50.1848 40.476 49.6266 40.428L49.5253 40.572C49.6693 40.8493 49.8586 41.208 50.0906 41.6213C50.8515 42.9941 51.7013 44.3155 52.6346 45.5774V45.3827C54.108 45.3827 55.6546 44.5867 56.9373 43.6387C57.0359 43.5676 57.1315 43.4951 57.2239 43.4213C56.5597 42.367 56.1528 41.1713 56.0359 39.9307ZM59.0039 45.4147C59.6828 45.9582 60.4457 46.3874 61.2626 46.6854L57.7693 50.1787C57.1488 49.9271 56.5093 49.5405 55.8506 49.0187C55.3802 48.6404 54.9336 48.2334 54.5133 47.8C56.0906 47.392 57.4866 46.548 58.5213 45.7854C58.6902 45.6609 58.8511 45.5373 59.0039 45.4147Z" fill="white"/>
<path d="M36.672 53.836C37.556 53.8353 38.4036 53.4834 39.0282 52.8578C39.6529 52.2322 40.0034 51.384 40.0027 50.5C40.002 49.6159 39.6501 48.7684 39.0245 48.1437C38.3988 47.5191 37.5507 47.1686 36.6667 47.1693C35.7826 47.17 34.935 47.5219 34.3104 48.1475C34.0011 48.4573 33.7559 48.8249 33.5887 49.2295C33.4215 49.6341 33.3356 50.0676 33.336 50.5053C33.3363 50.9431 33.4229 51.3764 33.5908 51.7807C33.7586 52.185 34.0044 52.5523 34.3142 52.8616C34.9398 53.4862 35.7879 53.8367 36.672 53.836ZM27.3387 59.1693C28.2227 59.1686 29.0703 58.8167 29.6949 58.1911C30.3195 57.5655 30.67 56.7174 30.6693 55.8333C30.6686 54.9493 30.3168 54.1017 29.6911 53.4771C29.0655 52.8525 28.2174 52.5019 27.3333 52.5027C26.4493 52.5034 25.6017 52.8552 24.9771 53.4808C24.3525 54.1065 24.002 54.9546 24.0027 55.8387C24.0034 56.7227 24.3552 57.5703 24.9809 58.1949C25.6065 58.8195 26.4546 59.17 27.3387 59.1693ZM53.336 55.8333C53.3363 56.2711 53.2505 56.7046 53.0833 57.1091C52.9161 57.5137 52.6708 57.8813 52.3616 58.1911C52.0523 58.5009 51.685 58.7467 51.2807 58.9146C50.8764 59.0824 50.4431 59.169 50.0053 59.1693C49.1213 59.17 48.2731 58.8195 47.6475 58.1949C47.0219 57.5703 46.67 56.7227 46.6693 55.8387C46.669 55.4009 46.7548 54.9674 46.922 54.5628C47.0892 54.1583 47.3345 53.7906 47.6437 53.4808C48.2684 52.8552 49.1159 52.5034 50 52.5027C50.884 52.5019 51.7322 52.8525 52.3578 53.4771C52.9834 54.1017 53.3353 54.9493 53.336 55.8333ZM36 55.1667C36.7072 55.1667 37.3855 55.4476 37.8856 55.9477C38.3857 56.4478 38.6667 57.1261 38.6667 57.8333V60.5H41.3333C42.0406 60.5 42.7188 60.7809 43.2189 61.281C43.719 61.7811 44 62.4594 44 63.1667C44 63.8739 43.719 64.5522 43.2189 65.0523C42.7188 65.5524 42.0406 65.8333 41.3333 65.8333H36C35.2928 65.8333 34.6145 65.5524 34.1144 65.0523C33.6143 64.5522 33.3333 63.8739 33.3333 63.1667V57.8333C33.3333 57.1261 33.6143 56.4478 34.1144 55.9477C34.6145 55.4476 35.2928 55.1667 36 55.1667ZM29.3333 63.1667C29.3333 62.4594 29.0524 61.7811 28.5523 61.281C28.0522 60.7809 27.3739 60.5 26.6667 60.5C25.9594 60.5 25.2811 60.7809 24.781 61.281C24.281 61.7811 24 62.4594 24 63.1667V69.8333C24 70.5406 24.281 71.2189 24.781 71.7189C25.2811 72.219 25.9594 72.5 26.6667 72.5H32C32.7072 72.5 33.3855 72.219 33.8856 71.7189C34.3857 71.2189 34.6667 70.5406 34.6667 69.8333C34.6667 69.1261 34.3857 68.4478 33.8856 67.9477C33.3855 67.4476 32.7072 67.1667 32 67.1667H29.3333V63.1667ZM50.6667 60.5C49.9594 60.5 49.2811 60.7809 48.781 61.281C48.2809 61.7811 48 62.4594 48 63.1667V67.1667H45.3333C44.6261 67.1667 43.9478 67.4476 43.4477 67.9477C42.9476 68.4478 42.6667 69.1261 42.6667 69.8333C42.6667 70.5406 42.9476 71.2189 43.4477 71.7189C43.9478 72.219 44.6261 72.5 45.3333 72.5H50.6667C51.3739 72.5 52.0522 72.219 52.5523 71.7189C53.0524 71.2189 53.3333 70.5406 53.3333 69.8333V63.1667C53.3333 62.4594 53.0524 61.7811 52.5523 61.281C52.0522 60.7809 51.3739 60.5 50.6667 60.5Z" fill="white"/>
</svg>
