<svg width="116" height="16" viewBox="0 0 116 16" fill="none" xmlns="http://www.w3.org/2000/svg">
<path d="M114.547 0.155548C114.887 0.155548 115.213 0.288881 115.524 0.555547C115.835 0.807399 115.991 1.15555 115.991 1.59999C115.991 1.73333 115.969 1.88147 115.924 2.04444L111.547 14.9333C111.458 15.2 111.295 15.4074 111.058 15.5555C110.835 15.6889 110.598 15.763 110.347 15.7778C110.095 15.7778 109.843 15.7037 109.591 15.5555C109.354 15.4074 109.169 15.1926 109.035 14.9111L105.747 7.44444L105.946 7.57777L102.702 14.9111C102.569 15.1926 102.376 15.4074 102.124 15.5555C101.887 15.7037 101.643 15.7778 101.391 15.7778C101.154 15.763 100.917 15.6889 100.68 15.5555C100.443 15.4074 100.28 15.2 100.191 14.9333L95.8131 2.04444C95.7687 1.88147 95.7465 1.73333 95.7465 1.59999C95.7465 1.15555 95.902 0.807399 96.2131 0.555547C96.5391 0.288881 96.8724 0.155548 97.2131 0.155548C97.4946 0.155548 97.7539 0.229622 97.9909 0.37777C98.2428 0.525918 98.4131 0.740733 98.502 1.02221L102.035 11.7333L101.546 11.7111L104.702 4.13332C104.821 3.86666 104.991 3.65925 105.213 3.5111C105.435 3.34814 105.687 3.27407 105.969 3.28888C106.25 3.27407 106.502 3.34814 106.724 3.5111C106.947 3.65925 107.109 3.86666 107.213 4.13332L110.102 11.3778L109.747 11.6L113.235 1.02221C113.324 0.740733 113.495 0.525918 113.747 0.37777C113.998 0.229622 114.265 0.155548 114.547 0.155548Z" fill="#303840"/>
<path d="M75.1558 0.22226C75.5113 0.22226 75.8002 0.340778 76.0224 0.577816C76.2446 0.814852 76.3558 1.11115 76.3558 1.4667V14.4223C76.3558 14.8074 76.2224 15.1334 75.9558 15.4C75.7039 15.6519 75.3854 15.7778 75.0002 15.7778C74.8076 15.7778 74.6076 15.7482 74.4002 15.6889C74.2076 15.6149 74.0595 15.5186 73.9558 15.4L65.2224 4.31115L65.8002 3.95559V14.5334C65.8002 14.8889 65.6816 15.1852 65.4446 15.4223C65.2224 15.6593 64.9261 15.7778 64.5557 15.7778C64.2002 15.7778 63.9113 15.6593 63.689 15.4223C63.4668 15.1852 63.3557 14.8889 63.3557 14.5334V1.57781C63.3557 1.19263 63.4816 0.874112 63.7335 0.62226C64.0002 0.355593 64.3261 0.22226 64.7113 0.22226C64.9187 0.22226 65.1335 0.266704 65.3557 0.355594C65.5779 0.429668 65.7409 0.548186 65.8446 0.711149L74.3113 11.5111L73.9335 11.7778V1.4667C73.9335 1.11115 74.0446 0.814852 74.2669 0.577816C74.4891 0.340778 74.7854 0.22226 75.1558 0.22226Z" fill="#303840"/>
<path d="M54.7121 15.7778C54.2973 15.7778 53.9566 15.6519 53.6899 15.4C53.4232 15.1334 53.2899 14.8074 53.2899 14.4223V1.53337H56.1788V14.4223C56.1788 14.8074 56.0381 15.1334 55.7566 15.4C55.4899 15.6519 55.1418 15.7778 54.7121 15.7778ZM49.801 2.77782C49.4158 2.77782 49.0899 2.6593 48.8232 2.42226C48.5714 2.18522 48.4454 1.87411 48.4454 1.48893C48.4454 1.10374 48.5714 0.800038 48.8232 0.577816C49.0899 0.340778 49.4158 0.22226 49.801 0.22226H59.6677C60.0529 0.22226 60.3714 0.340778 60.6233 0.577816C60.8899 0.814852 61.0233 1.12596 61.0233 1.51115C61.0233 1.89633 60.8899 2.20744 60.6233 2.44448C60.3714 2.6667 60.0529 2.77782 59.6677 2.77782H49.801Z" fill="#303840"/>
<path d="M40.1281 15.7778C39.7133 15.7778 39.3726 15.6519 39.1059 15.4C38.8392 15.1334 38.7059 14.8074 38.7059 14.4223V1.53337H41.5948V14.4223C41.5948 14.8074 41.4541 15.1334 41.1726 15.4C40.9059 15.6519 40.5578 15.7778 40.1281 15.7778ZM35.217 2.77782C34.8318 2.77782 34.5059 2.6593 34.2392 2.42226C33.9874 2.18522 33.8615 1.87411 33.8615 1.48893C33.8615 1.10374 33.9874 0.800038 34.2392 0.577816C34.5059 0.340778 34.8318 0.22226 35.217 0.22226H45.0837C45.4689 0.22226 45.7874 0.340778 46.0393 0.577816C46.3059 0.814852 46.4393 1.12596 46.4393 1.51115C46.4393 1.89633 46.3059 2.20744 46.0393 2.44448C45.7874 2.6667 45.4689 2.77782 45.0837 2.77782H35.217Z" fill="#303840"/>
<path d="M27.4877 3.71108L22.6877 15C22.584 15.2815 22.421 15.5037 22.1988 15.6666C21.9914 15.8148 21.7618 15.8889 21.5099 15.8889C21.1099 15.8889 20.8136 15.7777 20.621 15.5555C20.4285 15.3333 20.3322 15.0592 20.3322 14.7333C20.3322 14.6 20.3544 14.4592 20.3988 14.3111L25.9322 1.02219C26.0507 0.725896 26.2285 0.496266 26.4655 0.333302C26.7174 0.17034 26.984 0.103673 27.2655 0.133302C27.5322 0.133302 27.7766 0.214784 27.9988 0.377748C28.2359 0.525896 28.4063 0.74071 28.51 1.02219L33.9766 14.0444C34.0507 14.237 34.0878 14.4148 34.0878 14.5777C34.0878 14.9777 33.9544 15.2963 33.6878 15.5333C33.4359 15.7703 33.1544 15.8889 32.8433 15.8889C32.5766 15.8889 32.3322 15.8074 32.11 15.6444C31.9026 15.4815 31.7396 15.2592 31.6211 14.9777L26.8433 3.84441L27.4877 3.71108ZM23.3766 12.2889L24.5988 9.7333H30.5989L31.0211 12.2889H23.3766Z" fill="#303840"/>
<path d="M18.8001 0.155548C19.1408 0.155548 19.4667 0.288881 19.7778 0.555547C20.089 0.807399 20.2445 1.15555 20.2445 1.59999C20.2445 1.73333 20.2223 1.88147 20.1779 2.04444L15.8001 14.9333C15.7112 15.2 15.5482 15.4074 15.3112 15.5555C15.0889 15.6889 14.8519 15.763 14.6001 15.7778C14.3482 15.7778 14.0963 15.7037 13.8445 15.5555C13.6075 15.4074 13.4223 15.1926 13.2889 14.9111L10 7.44444L10.2 7.57777L6.95558 14.9111C6.82225 15.1926 6.62965 15.4074 6.3778 15.5555C6.14076 15.7037 5.89632 15.7778 5.64446 15.7778C5.40743 15.763 5.17039 15.6889 4.93335 15.5555C4.69631 15.4074 4.53335 15.2 4.44446 14.9333L0.0666669 2.04444C0.0222223 1.88147 0 1.73333 0 1.59999C0 1.15555 0.155556 0.807399 0.466668 0.555547C0.792595 0.288881 1.12593 0.155548 1.46667 0.155548C1.74815 0.155548 2.00741 0.229622 2.24445 0.37777C2.49631 0.525918 2.66668 0.740733 2.75557 1.02221L6.28891 11.7333L5.80002 11.7111L8.95559 4.13332C9.07411 3.86666 9.24448 3.65925 9.4667 3.5111C9.68892 3.34814 9.94078 3.27407 10.2223 3.28888C10.5037 3.27407 10.7556 3.34814 10.9778 3.5111C11.2 3.65925 11.363 3.86666 11.4667 4.13332L14.3556 11.3778L14.0001 11.6L17.489 1.02221C17.5778 0.740733 17.7482 0.525918 18.0001 0.37777C18.2519 0.229622 18.5186 0.155548 18.8001 0.155548Z" fill="#303840"/>
<path d="M92.2164 8C92.2164 5.01997 89.8006 2.60417 86.8206 2.60416C83.8405 2.60416 81.4247 5.01997 81.4247 8C81.4247 10.98 83.8405 13.3958 86.8206 13.3958V16L86.7172 15.9993C82.381 15.9444 78.8762 12.4396 78.8212 8.10342L78.8206 8C78.8206 3.58173 82.4023 0 86.8206 0L86.924 0.000678167C91.2946 0.0560577 94.8206 3.61626 94.8206 8L94.8199 8.10342C94.7646 12.474 91.2043 16 86.8206 16V13.3958C89.8006 13.3958 92.2164 10.98 92.2164 8Z" fill="#303840"/>
<path d="M84.4442 5.03473C84.6007 5.03473 84.7509 5.09792 84.8616 5.21039C84.9723 5.32287 85.0344 5.47541 85.0344 5.63448V7.43372C85.0344 7.59278 84.9723 7.74533 84.8616 7.8578C84.7509 7.97028 84.6007 8.03347 84.4442 8.03347C84.2876 8.03347 84.1375 7.97028 84.0268 7.8578C83.9161 7.74533 83.8539 7.59278 83.8539 7.43372V5.63448C83.8539 5.47541 83.9161 5.32287 84.0268 5.21039C84.1375 5.09792 84.2876 5.03473 84.4442 5.03473ZM89.1664 5.03473C89.323 5.03473 89.4731 5.09792 89.5838 5.21039C89.6945 5.32287 89.7567 5.47541 89.7567 5.63448V7.43372C89.7567 7.59278 89.6945 7.74533 89.5838 7.8578C89.4731 7.97028 89.323 8.03347 89.1664 8.03347C89.0098 8.03347 88.8597 7.97028 88.749 7.8578C88.6383 7.74533 88.5761 7.59278 88.5761 7.43372V5.63448C88.5761 5.47541 88.6383 5.32287 88.749 5.21039C88.8597 5.09792 89.0098 5.03473 89.1664 5.03473ZM85.6247 10.4325V11.632H87.9858V10.4325C87.9858 10.1143 87.8615 9.80923 87.6401 9.58429C87.4187 9.35934 87.1184 9.23296 86.8053 9.23296C86.4922 9.23296 86.1919 9.35934 85.9705 9.58429C85.7491 9.80923 85.6247 10.1143 85.6247 10.4325Z" fill="#303840"/>
</svg>
